
<svg viewBox="0 0 512 512" xmlns="http://www.w3.org/2000/svg">
  <path fill="#90caf9" d="M 258 169 M 376 249 V 112 A 1 1 0 0 0 360 112 V 152 H 296 V 112 A 1 1 0 0 0 280 112 V 250 Q 268 252 264 269 V 368 H 183 Q 163 370 160 391 V 488 H 135 A 1 1 0 0 0 137 504 H 497 A 1 1 0 0 0 495 488 H 488 V 343 Q 485 322 465 320 H 392 V 271 Q 391 255 376 249 M 317 282 H 333 Q 339 283 340 289 V 354 A 1 1 0 0 1 324 354 V 298 H 319 A 1 1 0 0 1 317 282 M 216 423 A 1 1 0 0 1 201 418 A 1 1 0 0 1 247 430 Q 245 436 242 440 A 1 1 0 0 1 206 472 Q 200 465 200 456 A 1 1 0 0 1 216 456 A 1 1 0 0 0 232 456 Q 231 448 224 448 A 1 1 0 0 1 224 432 A 1 1 0 0 0 224 416 Q 218 416 216 423 M 435 416 A 1 1 0 0 1 434 432 H 401 Q 391 430 395 420 L 421 384 Q 426 376 421 370 Q 412 365 408 374 A 1 1 0 0 1 392 372 A 1 1 0 0 1 439 380 Q 438 386 435 391 L 418 416 H 435 M 296 168 H 360 V 200 H 296 Z M 296 216 H 360 V 248 H 296 Z"></path>
  <path stroke-linecap="round" fill="none" stroke-width="17" stroke="#444" d="M 296 16 C 363 14 332 37 370 39 Q 380 39 380 48 V 71 Q 380 81 369 80 C 332 77 359 52 296 56 M 296 16 V 111 M 16 400 H 392 Q 400 400 400 392 V 130 Q 400 111 384 111 H 273 Q 256 110 256 129 V 199 Q 256 208 248 208 H 173 Q 161 208 161 222 V 294 Q 161 304 153 304 H 79 Q 67 303 67 318 V 400"></path>
</svg>