<svg xmlns="http://www.w3.org/2000/svg" viewBox="0 0 512 512" stroke-linecap="round">
  
    <path d="M 168 168 L 128 168 Q 106 170 104 190 L 104 474 Q 107 494 127 496 L 415 496 L 434 419 Q 436 409 446 412 L 504 426 L 504 190 Q 501 170 481 168 L 440 168 L 440 201 A 1 1 0 0 1 424 247 Q 408 240 408 224 T 424 201 L 424 168 L 312 168 L 312 201 A 1 1 0 0 1 296 247 Q 280 240 280 224 T 296 201 L 296 168 L 184 168 L 184 201 A 1 1 0 0 1 168 247 Q 152 240 152 224 T 168 201 L 168 168 Z M 448 429 L 433 492 L 498 441 L 448 429 Z M 152 400 L 192 400 L 192 440 L 152 440 L 152 400 Z M 328 400 L 368 400 L 368 440 L 328 440 L 328 400 M 328 312 L 368 312 L 368 352 L 328 352 L 328 312 M 416 312 L 456 312 L 456 352 L 416 352 L 416 312 Z M 319 296 L 376 296 Q 383 297 384 303 L 384 361 Q 383 367 377 368 L 319 368 Q 313 367 312 361 L 312 303 Q 313 297 319 296 M 152 312 L 192 312 L 192 352 L 152 352 L 152 312 M 240 312 L 280 312 L 280 352 L 240 352 L 240 312 M 240 400 L 280 400 L 280 440 L 240 440 L 240 400 M 143 296 L 201 296 Q 206 297 208 302 L 208 361 Q 207 367 201 368 L 143 368 Q 137 367 136 361 L 136 303 Q 137 297 143 296 M 231 296 L 289 296 Q 295 297 296 303 L 296 360 Q 295 367 289 368 L 231 368 Q 225 367 224 361 L 224 303 Q 225 297 231 296 M 407 296 L 464 296 Q 470 296 472 303 L 472 361 Q 471 367 464 368 L 407 368 Q 401 367 400 361 L 400 303 Q 401 297 407 296 M 144 384 L 200 384 Q 207 384 208 392 L 208 449 Q 207 455 200 456 L 144 456 Q 136 455 136 448 L 136 391 Q 138 384 144 384 M 232 384 L 288 384 Q 296 385 296 392 L 296 448 Q 296 455 288 456 L 232 456 Q 224 455 224 448 L 224 392 Q 225 385 232 384 M 320 384 L 376 384 Q 384 385 384 392 L 384 448 Q 383 456 376 456 L 320 456 Q 312 455 312 448 L 312 392 Q 313 384 320 384 M 463 264 A 1 1 0 0 1 465 280 L 144 280 A 1 1 0 0 1 144 264 Z" fill="#90caf9"/>
  
    <path d="M 41 52 L 90 53 L 90 100 M 90 53 A 1 1 0 0 0 289 344 Q 392 270 358 143 Q 295 -5 133 34 M 192 110 L 192 200 L 261 161 M 192 52 L 192 76 M 117 72 L 129 92 M 63 126 L 84 137 M 43 200 L 68 200 M 66 274 L 84 262 M 119 327 L 130 309 M 192 326 L 192 346 M 265 327 L 255 310 M 300 261 L 319 273 M 317 200 L 340 200 M 301 138 L 319 128 M 254 91 L 265 72" stroke="#444" stroke-width="17" fill="none"/>
  
</svg>


